<mxfile host="app.diagrams.net" modified="2024-03-27T14:25:54.726Z" agent="Mozilla/5.0 (Windows NT 10.0; Win64; x64) AppleWebKit/537.36 (KHTML, like Gecko) Chrome/122.0.0.0 Safari/537.36 Edg/122.0.0.0" etag="e5u9-czUXEo9zD-JNYfd" version="24.2.0" type="github">
  <diagram name="Página-1" id="lxttK0GlJvba_8utVRSA">
    <mxGraphModel dx="478" dy="775" grid="1" gridSize="10" guides="1" tooltips="1" connect="1" arrows="1" fold="1" page="1" pageScale="1" pageWidth="827" pageHeight="1169" math="0" shadow="0">
      <root>
        <mxCell id="0" />
        <mxCell id="1" parent="0" />
        <mxCell id="TxZPWn5AfLAfFSg8Yjx7-1" value="uc Sistema de Controle Bancário" style="shape=umlFrame;whiteSpace=wrap;html=1;pointerEvents=0;width=190;height=20;" vertex="1" parent="1">
          <mxGeometry x="100" y="240" width="450" height="760" as="geometry" />
        </mxCell>
        <mxCell id="TxZPWn5AfLAfFSg8Yjx7-2" value="Use Case" style="ellipse;whiteSpace=wrap;html=1;" vertex="1" parent="1">
          <mxGeometry x="290" y="280" width="140" height="70" as="geometry" />
        </mxCell>
        <mxCell id="TxZPWn5AfLAfFSg8Yjx7-15" style="edgeStyle=orthogonalEdgeStyle;rounded=0;orthogonalLoop=1;jettySize=auto;html=1;exitX=0.5;exitY=0;exitDx=0;exitDy=0;" edge="1" parent="1" source="TxZPWn5AfLAfFSg8Yjx7-3">
          <mxGeometry relative="1" as="geometry">
            <mxPoint x="360" y="360" as="targetPoint" />
            <Array as="points">
              <mxPoint x="440" y="370" />
              <mxPoint x="361" y="370" />
            </Array>
          </mxGeometry>
        </mxCell>
        <mxCell id="TxZPWn5AfLAfFSg8Yjx7-3" value="Use Case" style="ellipse;whiteSpace=wrap;html=1;" vertex="1" parent="1">
          <mxGeometry x="370" y="390" width="140" height="70" as="geometry" />
        </mxCell>
        <mxCell id="TxZPWn5AfLAfFSg8Yjx7-14" style="edgeStyle=orthogonalEdgeStyle;rounded=0;orthogonalLoop=1;jettySize=auto;html=1;exitX=0.5;exitY=0;exitDx=0;exitDy=0;entryX=0.5;entryY=1;entryDx=0;entryDy=0;" edge="1" parent="1" source="TxZPWn5AfLAfFSg8Yjx7-4" target="TxZPWn5AfLAfFSg8Yjx7-2">
          <mxGeometry relative="1" as="geometry" />
        </mxCell>
        <mxCell id="TxZPWn5AfLAfFSg8Yjx7-4" value="Use Case" style="ellipse;whiteSpace=wrap;html=1;" vertex="1" parent="1">
          <mxGeometry x="210" y="390" width="140" height="70" as="geometry" />
        </mxCell>
        <mxCell id="TxZPWn5AfLAfFSg8Yjx7-5" value="Use Case" style="ellipse;whiteSpace=wrap;html=1;" vertex="1" parent="1">
          <mxGeometry x="560" y="515" width="140" height="70" as="geometry" />
        </mxCell>
        <mxCell id="TxZPWn5AfLAfFSg8Yjx7-6" value="Use Case" style="ellipse;whiteSpace=wrap;html=1;" vertex="1" parent="1">
          <mxGeometry x="560" y="320" width="140" height="70" as="geometry" />
        </mxCell>
        <mxCell id="TxZPWn5AfLAfFSg8Yjx7-7" value="Use Case" style="ellipse;whiteSpace=wrap;html=1;" vertex="1" parent="1">
          <mxGeometry x="330" y="620" width="140" height="70" as="geometry" />
        </mxCell>
        <mxCell id="TxZPWn5AfLAfFSg8Yjx7-8" value="Use Case" style="ellipse;whiteSpace=wrap;html=1;" vertex="1" parent="1">
          <mxGeometry x="560" y="760" width="140" height="70" as="geometry" />
        </mxCell>
        <mxCell id="TxZPWn5AfLAfFSg8Yjx7-22" value="extend" style="rounded=0;orthogonalLoop=1;jettySize=auto;html=1;entryX=1;entryY=0.5;entryDx=0;entryDy=0;dashed=1;" edge="1" parent="1" source="TxZPWn5AfLAfFSg8Yjx7-9" target="TxZPWn5AfLAfFSg8Yjx7-11">
          <mxGeometry relative="1" as="geometry" />
        </mxCell>
        <mxCell id="TxZPWn5AfLAfFSg8Yjx7-9" value="Use Case" style="ellipse;whiteSpace=wrap;html=1;" vertex="1" parent="1">
          <mxGeometry x="330" y="770" width="140" height="70" as="geometry" />
        </mxCell>
        <mxCell id="TxZPWn5AfLAfFSg8Yjx7-10" value="Use Case" style="ellipse;whiteSpace=wrap;html=1;" vertex="1" parent="1">
          <mxGeometry x="140" y="470" width="140" height="70" as="geometry" />
        </mxCell>
        <mxCell id="TxZPWn5AfLAfFSg8Yjx7-21" value="include" style="edgeStyle=orthogonalEdgeStyle;rounded=0;orthogonalLoop=1;jettySize=auto;html=1;dashed=1;" edge="1" parent="1" source="TxZPWn5AfLAfFSg8Yjx7-11" target="TxZPWn5AfLAfFSg8Yjx7-12">
          <mxGeometry relative="1" as="geometry" />
        </mxCell>
        <mxCell id="TxZPWn5AfLAfFSg8Yjx7-11" value="Use Case" style="ellipse;whiteSpace=wrap;html=1;" vertex="1" parent="1">
          <mxGeometry x="140" y="690" width="140" height="70" as="geometry" />
        </mxCell>
        <mxCell id="TxZPWn5AfLAfFSg8Yjx7-12" value="Use Case" style="ellipse;whiteSpace=wrap;html=1;" vertex="1" parent="1">
          <mxGeometry x="140" y="910" width="140" height="70" as="geometry" />
        </mxCell>
        <mxCell id="TxZPWn5AfLAfFSg8Yjx7-17" style="rounded=0;orthogonalLoop=1;jettySize=auto;html=1;entryX=0;entryY=1;entryDx=0;entryDy=0;" edge="1" parent="1" source="TxZPWn5AfLAfFSg8Yjx7-13" target="TxZPWn5AfLAfFSg8Yjx7-10">
          <mxGeometry relative="1" as="geometry" />
        </mxCell>
        <mxCell id="TxZPWn5AfLAfFSg8Yjx7-18" style="rounded=0;orthogonalLoop=1;jettySize=auto;html=1;entryX=0;entryY=0;entryDx=0;entryDy=0;" edge="1" parent="1" source="TxZPWn5AfLAfFSg8Yjx7-13" target="TxZPWn5AfLAfFSg8Yjx7-11">
          <mxGeometry relative="1" as="geometry" />
        </mxCell>
        <mxCell id="TxZPWn5AfLAfFSg8Yjx7-19" style="rounded=0;orthogonalLoop=1;jettySize=auto;html=1;exitX=1;exitY=0.3333333333333333;exitDx=0;exitDy=0;exitPerimeter=0;" edge="1" parent="1" source="TxZPWn5AfLAfFSg8Yjx7-13" target="TxZPWn5AfLAfFSg8Yjx7-7">
          <mxGeometry relative="1" as="geometry" />
        </mxCell>
        <mxCell id="TxZPWn5AfLAfFSg8Yjx7-20" style="rounded=0;orthogonalLoop=1;jettySize=auto;html=1;entryX=0;entryY=0;entryDx=0;entryDy=0;" edge="1" parent="1" source="TxZPWn5AfLAfFSg8Yjx7-13" target="TxZPWn5AfLAfFSg8Yjx7-12">
          <mxGeometry relative="1" as="geometry" />
        </mxCell>
        <mxCell id="TxZPWn5AfLAfFSg8Yjx7-13" value="Actor" style="shape=umlActor;verticalLabelPosition=bottom;verticalAlign=top;html=1;" vertex="1" parent="1">
          <mxGeometry x="40" y="625" width="30" height="60" as="geometry" />
        </mxCell>
      </root>
    </mxGraphModel>
  </diagram>
</mxfile>
